<svg xmlns="http://www.w3.org/2000/svg" viewBox="0 0 1120 928" fill="none">
  <defs>
    <linearGradient id="logo-grad" x1="0" y1="0" x2="1" y2="1">
      <stop offset="0%" stop-color="#e47040"/>
      <stop offset="50%" stop-color="#d45a2a"/>
      <stop offset="100%" stop-color="#b04820"/>
    </linearGradient>
  </defs>
  <g transform="translate(0,928) scale(0.1,-0.1)" fill="url(#logo-grad)">
    <path d="M5575 7924 c-60 -32 -76 -48 -105 -104 -32 -62 -32 -168 0 -228 47
-89 178 -158 257 -134 21 6 47 14 59 17 26 7 99 79 120 120 9 17 19 60 21 96
5 57 2 75 -20 121 -56 124 -211 176 -332 112z"/>
    <path d="M5250 7796 c-3 -2 -43 -9 -90 -15 -138 -18 -343 -64 -439 -98 -24 -9
-58 -19 -75 -24 -17 -4 -56 -17 -86 -29 -30 -12 -68 -26 -85 -31 -16 -5 -39
-13 -50 -18 -11 -6 -51 -24 -90 -42 -123 -56 -217 -105 -325 -169 -96 -58
-288 -185 -300 -199 -3 -3 -48 -40 -100 -82 -336 -268 -666 -663 -855 -1025
-14 -27 -30 -56 -35 -64 -8 -13 -28 -55 -95 -205 -14 -32 -40 -98 -74 -185
-11 -31 -21 -62 -21 -70 0 -8 -6 -35 -14 -60 -46 -142 -56 -180 -56 -213 0
-19 -5 -48 -11 -64 -14 -34 -44 -236 -53 -348 -8 -96 -1 -108 78 -135 72 -26
161 -26 202 -1 l31 19 7 119 c9 153 48 366 87 478 6 17 14 46 19 65 9 43 38
135 55 175 7 17 34 84 61 150 26 66 59 138 71 160 13 22 28 52 34 68 6 15 15
27 20 27 5 0 9 6 9 13 0 6 18 40 40 75 22 34 40 65 40 67 0 11 104 155 198
274 172 217 443 461 682 615 58 37 116 76 130 85 21 14 221 114 335 166 32 15
100 40 152 56 18 5 45 16 60 24 15 8 36 15 46 15 10 0 27 5 38 10 40 22 278
74 414 91 127 15 150 22 153 47 2 13 -2 30 -10 39 -9 11 -13 50 -13 127 l0
111 -40 3 c-23 2 -43 1 -45 -2z"/>
    <path d="M6060 7774 c-1 -5 -2 -45 -4 -89 -2 -49 -10 -93 -20 -112 -19 -39
-21 -79 -3 -86 8 -3 40 -8 73 -12 32 -4 70 -12 83 -17 13 -4 51 -13 85 -18 33
-5 102 -21 151 -35 154 -44 138 -48 180 36 41 83 51 102 77 141 10 15 18 34
18 41 0 15 -57 47 -84 47 -9 0 -42 8 -73 19 -54 17 -93 26 -283 65 -101 21
-200 31 -200 20z"/>
    <path d="M6926 7678 c-53 -84 -166 -270 -166 -273 0 -7 -63 -97 -82 -119 -10
-11 -18 -25 -18 -30 0 -6 -10 -24 -23 -39 -21 -27 -24 -28 -67 -17 -25 6 -74
17 -110 24 -36 8 -85 18 -110 24 -156 38 -265 47 -585 47 -261 0 -341 -3 -435
-18 -178 -28 -297 -54 -470 -103 -69 -19 -182 -63 -194 -75 -6 -5 -18 -9 -28
-9 -16 0 -225 -94 -268 -120 -8 -5 -33 -19 -55 -31 -22 -11 -59 -34 -83 -50
-24 -16 -47 -29 -53 -29 -5 0 -9 -4 -9 -8 0 -5 -12 -15 -27 -23 -24 -12 -60
-37 -148 -104 -11 -9 -33 -26 -49 -38 -97 -73 -334 -311 -428 -429 -56 -71
-198 -274 -198 -283 0 -2 -11 -20 -24 -39 -30 -45 -176 -344 -176 -362 0 -3
-6 -20 -14 -37 -17 -39 -43 -116 -60 -182 -8 -27 -19 -63 -24 -80 -16 -47 -41
-165 -48 -225 -3 -30 -13 -93 -21 -140 -21 -114 -21 -478 0 -610 8 -52 18
-122 22 -155 6 -60 23 -137 50 -230 9 -27 19 -68 24 -90 10 -42 35 -115 51
-150 5 -11 28 -65 51 -120 60 -147 117 -248 244 -435 52 -77 89 -123 210 -260
68 -78 196 -200 269 -258 39 -30 76 -60 81 -66 14 -15 166 -121 217 -151 138
-81 235 -132 321 -169 64 -28 133 -58 162 -72 17 -7 68 -25 115 -39 47 -14
105 -32 130 -40 25 -8 56 -15 70 -15 14 0 45 -6 70 -14 25 -8 95 -24 156 -36
99 -18 148 -20 420 -20 170 1 329 5 354 10 25 5 77 14 115 20 78 13 261 57
275 65 5 3 28 9 52 15 44 9 127 35 163 50 11 5 49 21 85 35 36 15 83 35 106
46 22 10 45 19 51 19 6 0 16 6 22 14 7 8 23 17 36 20 51 13 356 200 440 271
17 13 35 28 40 32 118 90 313 283 396 393 15 19 35 44 46 55 31 32 103 133
103 144 0 5 4 11 8 13 22 9 193 323 207 381 4 15 11 30 16 33 5 3 9 12 9 21 0
8 6 29 14 46 79 179 152 556 162 836 7 198 -5 391 -36 552 -12 57 -27 138 -35
179 -20 105 -65 253 -91 302 -8 14 -14 33 -14 41 0 9 -7 28 -15 44 -8 15 -44
89 -79 163 -82 169 -112 221 -208 363 -94 138 -185 253 -198 250 -6 -2 -10 2
-10 9 0 6 -2 9 -5 6 -6 -6 18 -60 43 -100 28 -43 82 -137 82 -143 0 -2 15 -28
33 -57 40 -65 53 -92 127 -263 5 -11 21 -49 35 -85 14 -36 29 -72 33 -80 8
-14 45 -133 77 -245 18 -62 42 -175 50 -235 4 -25 14 -65 22 -90 24 -69 23
-691 -1 -810 -45 -228 -75 -350 -107 -435 -10 -28 -19 -57 -19 -65 0 -9 -6
-24 -14 -35 -7 -11 -17 -31 -21 -45 -17 -60 -149 -313 -209 -403 -120 -178
-207 -277 -397 -446 -105 -94 -182 -150 -304 -220 -77 -44 -238 -125 -280
-141 -11 -4 -45 -17 -75 -29 -31 -11 -61 -21 -67 -21 -7 0 -27 -6 -45 -14
-115 -49 -310 -87 -591 -116 -163 -16 -440 6 -632 50 -93 22 -371 109 -413
129 -35 17 -108 50 -122 56 -8 3 -45 22 -81 43 -36 20 -81 45 -100 56 -220
121 -535 403 -687 612 -134 184 -199 299 -292 519 -12 28 -28 64 -36 82 -8 17
-14 40 -14 50 0 10 -4 23 -10 29 -5 5 -14 30 -19 54 -5 25 -19 88 -30 140 -34
156 -44 294 -38 523 7 296 51 504 157 742 191 431 446 741 805 980 49 33 108
70 130 82 69 39 226 113 239 113 7 0 21 7 32 15 10 8 28 15 39 15 11 0 38 9
60 20 22 11 50 19 63 20 13 0 33 5 45 12 56 30 327 68 537 74 123 4 183 1 290
-15 74 -10 148 -24 163 -30 16 -6 40 -11 55 -11 48 0 122 -32 122 -53 0 -11
-28 -65 -61 -121 -94 -153 -104 -174 -96 -182 4 -5 33 -2 65 5 31 7 93 19 137
26 44 7 105 17 135 23 30 6 89 16 130 22 41 7 95 16 120 21 25 5 74 13 110 18
36 5 90 14 120 19 59 12 153 27 295 47 50 7 106 18 125 24 19 6 48 11 64 11
28 0 28 1 22 40 -6 41 -11 52 -71 182 -19 43 -35 81 -35 85 -1 4 -9 26 -20 48
-11 22 -19 46 -20 53 0 7 -4 20 -10 30 -21 37 -80 175 -80 188 0 8 -4 14 -10
14 -5 0 -10 7 -10 16 0 16 -67 183 -94 234 -7 14 -23 54 -36 90 -13 36 -30 71
-37 78 -7 7 -13 20 -13 28 0 18 -29 64 -41 64 -5 0 -15 -10 -23 -22z"/>
    <path d="M7340 7270 c0 -6 11 -38 25 -72 14 -34 25 -65 25 -70 0 -5 16 -43 35
-86 57 -123 65 -142 65 -155 0 -7 8 -28 18 -47 11 -19 22 -48 26 -64 5 -19 46
-66 118 -135 98 -93 179 -184 283 -315 17 -21 56 -77 87 -125 32 -47 61 -90
65 -96 5 -5 21 -35 36 -65 39 -74 61 -114 67 -120 13 -13 90 -186 90 -203 0
-6 6 -18 14 -26 12 -14 52 -135 106 -321 29 -99 50 -201 59 -280 10 -95 23
-108 93 -92 29 7 84 17 122 23 96 14 99 17 91 108 -6 83 -37 236 -62 316 -9
28 -20 66 -24 85 -4 19 -19 67 -34 105 -15 39 -29 81 -32 95 -3 14 -9 30 -13
35 -4 6 -20 42 -35 80 -32 83 -109 242 -165 340 -22 39 -43 77 -47 85 -8 19
-121 185 -176 259 -114 154 -358 415 -487 522 -204 169 -350 260 -350 219z"/>
    <path d="M5807 6221 c-134 -19 -247 -106 -247 -190 0 -46 39 -128 78 -165 33
-31 33 -42 -1 -57 -12 -5 -29 -13 -37 -18 -8 -5 -59 -31 -113 -57 -120 -60
-136 -69 -150 -83 -12 -12 -62 -14 -119 -5 -32 6 -39 12 -49 43 -53 171 -177
305 -335 361 -98 34 -175 25 -284 -34 -14 -8 -40 -33 -57 -56 -26 -32 -33 -51
-33 -85 0 -63 37 -141 94 -196 19 -18 16 -69 -4 -69 -6 0 -10 -6 -11 -12 0
-13 -63 -94 -254 -329 -119 -146 -133 -180 -116 -268 25 -129 92 -221 212
-292 38 -23 69 -44 69 -48 0 -10 -30 -52 -66 -91 -184 -203 -261 -302 -288
-369 -49 -119 -26 -215 77 -327 27 -30 64 -63 81 -72 55 -29 120 -52 151 -52
17 0 35 -4 41 -8 7 -5 10 -84 10 -237 -1 -220 0 -232 22 -281 62 -137 220
-213 356 -170 82 26 118 70 152 185 4 10 15 5 42 -20 81 -75 95 -81 203 -82
93 -2 100 -1 122 23 13 14 36 54 51 90 15 36 31 73 37 83 9 17 15 40 40 162
17 81 6 360 -16 415 -38 90 -109 173 -190 220 -29 16 -57 23 -103 23 -55 1
-65 -2 -92 -28 -55 -53 -52 -118 12 -190 47 -54 47 -53 -18 -192 -25 -53 -51
-113 -57 -132 -14 -42 -32 -50 -41 -19 -3 13 -9 160 -12 328 -7 338 -12 303
60 440 22 42 66 142 79 183 15 43 57 5 57 -52 0 -69 104 -233 181 -286 46 -32
111 -57 164 -63 l60 -7 -3 -57 c-3 -45 0 -60 16 -76 17 -17 20 -39 25 -228 8
-261 16 -291 111 -434 63 -94 119 -148 190 -184 31 -16 59 -32 61 -36 3 -5 24
-11 48 -15 23 -4 61 -13 85 -21 55 -18 163 -18 277 1 50 8 109 15 132 15 58 0
146 37 198 83 50 43 74 46 130 15 34 -18 57 -22 145 -22 96 -1 108 1 140 24
51 36 120 126 120 158 0 9 8 31 17 47 25 45 25 365 0 414 -9 19 -17 41 -17 50
0 23 -53 124 -94 180 -40 55 -131 141 -176 167 -37 23 -38 38 -2 61 42 28 76
64 99 108 34 66 63 149 63 180 1 17 7 57 15 90 21 86 20 305 -1 370 -47 142
-96 209 -197 272 -89 56 -143 80 -218 97 -71 17 -207 20 -279 6 -55 -10 -70 0
-70 49 0 71 2 72 225 74 171 2 204 0 231 -15 17 -9 73 -24 125 -33 92 -16 95
-16 139 4 93 43 110 73 110 186 0 99 -15 139 -77 196 -90 84 -154 121 -273
157 -184 56 -288 65 -433 37 -43 -8 -81 -15 -83 -15 -3 0 -28 24 -57 53 -79
80 -192 125 -323 131 -55 3 -125 1 -157 -3z m-640 -863 c8 -13 68 -44 138 -72
51 -20 192 -38 270 -34 59 3 60 2 63 -24 4 -30 -13 -68 -29 -68 -6 0 -43 -16
-83 -35 -40 -19 -75 -35 -78 -35 -2 0 -29 25 -60 55 l-55 55 -74 0 c-59 0 -79
-4 -105 -22 -54 -37 -68 -90 -39 -144 15 -28 14 -74 -1 -157 -7 -35 -22 -25
-60 41 -15 26 -42 67 -61 91 -18 24 -33 50 -33 58 0 8 15 38 34 66 43 66 120
197 129 220 7 20 32 23 44 5z m1441 -401 c3 -38 -35 -156 -61 -190 -8 -10 -32
-17 -67 -19 -64 -4 -69 4 -51 91 7 31 15 71 19 90 6 30 13 37 57 52 28 9 61
16 75 15 21 -1 25 -6 28 -39z m-563 -214 c-7 -71 -18 -88 -63 -100 -32 -8 -40
4 -44 67 l-3 55 45 22 c71 35 73 33 65 -44z m-466 -80 c7 -15 15 -48 18 -73 6
-54 -4 -66 -64 -76 l-42 -6 -9 38 c-30 121 -23 141 54 143 24 1 33 -5 43 -26z
m1118 -450 c3 -7 -8 -15 -24 -19 -35 -8 -86 -37 -140 -81 -49 -39 -79 -43 -88
-10 -4 12 -16 41 -28 65 -19 37 -20 44 -7 52 22 15 282 8 287 -7z m-594 -35
c2 -7 -2 -28 -9 -47 -20 -47 -17 -165 4 -236 30 -96 45 -117 137 -185 50 -37
56 -45 50 -68 -21 -90 -174 -79 -257 17 -44 51 -48 72 -48 223 0 133 -13 173
-70 222 -35 29 -32 46 6 46 14 0 34 5 45 11 19 10 87 26 121 28 9 1 18 -5 21
-11z m701 -269 c32 -38 40 -67 34 -127 -4 -43 -43 -122 -60 -122 -3 0 -17 24
-31 53 -21 47 -55 89 -101 125 -9 7 -16 17 -16 22 0 10 119 80 137 80 6 0 23
-14 37 -31z"/>
    <path d="M8750 4793 c-59 -21 -116 -67 -152 -122 -24 -38 -28 -55 -28 -113 0
-101 49 -180 143 -236 57 -33 154 -31 227 6 100 50 144 143 126 268 -12 87
-82 166 -174 194 -75 23 -83 23 -142 3z"/>
    <path d="M2407 4540 c-65 -11 -119 -49 -162 -112 -32 -49 -35 -58 -35 -128 1
-79 12 -111 60 -166 56 -66 135 -92 238 -79 51 6 61 12 117 68 48 49 64 73 74
110 14 59 5 141 -21 184 -34 56 -104 111 -159 122 -28 6 -53 10 -57 10 -4 -1
-29 -5 -55 -9z"/>
    <path d="M8493 4190 c-27 -9 -33 -16 -38 -48 -12 -81 -36 -189 -52 -237 -9
-27 -20 -66 -24 -85 -6 -29 -52 -164 -84 -245 -19 -49 -50 -117 -93 -203 -69
-135 -73 -143 -101 -187 -14 -22 -28 -44 -31 -50 -3 -5 -23 -37 -44 -70 -129
-198 -361 -449 -571 -617 -80 -63 -271 -198 -281 -198 -4 0 -15 -6 -23 -14
-15 -13 -289 -160 -321 -172 -8 -3 -31 -12 -50 -21 -19 -9 -48 -19 -65 -24
-40 -10 -113 -37 -152 -54 -17 -8 -38 -15 -48 -15 -9 0 -28 -6 -43 -14 -15 -8
-50 -19 -77 -25 -28 -5 -68 -14 -90 -20 -38 -10 -215 -48 -262 -57 -30 -6 -30
-33 1 -94 13 -26 27 -63 31 -81 4 -19 14 -56 22 -82 l16 -49 56 7 c31 3 83 13
116 21 204 51 338 89 415 119 187 72 242 95 355 151 172 84 231 118 360 202
41 28 146 103 155 112 3 3 28 23 55 45 157 125 306 271 455 445 85 100 272
362 333 467 46 80 167 323 167 337 1 6 9 29 20 51 11 22 19 44 20 48 0 5 6 23
14 40 21 48 37 96 51 157 7 30 18 69 24 85 27 77 42 142 52 217 11 87 3 109
-45 124 -11 3 -29 13 -38 21 -21 19 -139 27 -185 13z"/>
    <path d="M2755 3896 c-89 -29 -153 -46 -173 -46 -31 0 -36 -16 -22 -79 23
-107 139 -430 167 -462 7 -8 13 -20 13 -24 0 -40 221 -413 329 -555 132 -175
358 -409 502 -521 24 -19 46 -37 49 -40 9 -10 160 -119 165 -119 5 0 126 -81
135 -90 3 -3 16 -11 30 -18 14 -7 57 -30 95 -52 117 -67 235 -125 335 -164 52
-20 109 -43 125 -51 86 -38 338 -112 445 -130 41 -6 93 -17 115 -23 53 -15
163 -18 176 -5 5 5 14 38 20 74 5 35 16 78 23 94 49 112 47 104 28 114 -9 5
-57 16 -107 25 -148 28 -197 37 -260 52 -111 25 -180 45 -207 59 -14 8 -32 15
-39 15 -8 0 -54 16 -104 36 -49 20 -115 46 -145 57 -30 12 -59 24 -65 28 -10
6 -206 110 -260 137 -39 20 -243 155 -289 192 -62 49 -212 185 -281 255 -114
116 -181 195 -266 315 -40 58 -76 107 -79 110 -32 27 -208 361 -257 485 -45
114 -83 232 -83 255 0 12 -7 36 -14 55 -17 39 -33 42 -101 21z"/>
    <path d="M5616 1803 c-42 -7 -98 -45 -137 -94 -69 -87 -58 -252 21 -329 58
-55 82 -64 170 -64 74 1 91 5 132 28 56 32 86 71 110 141 23 66 22 93 -3 157
-37 96 -111 154 -205 161 -33 3 -72 3 -88 0z"/>
  </g>
</svg>